<?xml version="1.0" encoding="utf-8" ?>
<svg baseProfile="full" height="200mm" version="1.1" viewBox="0,0,200,200" width="200mm" xmlns="http://www.w3.org/2000/svg" xmlns:ev="http://www.w3.org/2001/xml-events" xmlns:xlink="http://www.w3.org/1999/xlink"><defs /><rect fill="#1a1a1a" height="200" width="200" x="0" y="0" /><text alignment-baseline="middle" fill="#e1ed5e" style="dominant-baseline: central; font-size:9.0px; font-family:Arial;" text-anchor="middle" x="100.0" y="100.0">2019</text><line stroke="#e1ed5e" stroke-width="0.3" x1="100.0" x2="100.0" y1="15.0" y2="10.0" /><path d="M 100.0 14.0 a86.0,86.0 0 0,1 42.46469731375804,11.215312516191453" fill="none" id="id37" stroke="none" /><text fill="#e1ed5e" style="font-size:6.75px; font-family:Arial;" text-anchor="middle"><textPath startOffset="22.20632615414155" xlink:href="#id37">January</textPath></text><line stroke="#e1ed5e" stroke-width="0.3" x1="143.23703022742887" x2="145.7803849466894" y1="26.81831364943548" y2="22.513508569990506" /><path d="M 143.74570117128098 25.957352633546492 a86.0,86.0 0 0,1 28.547481713284135,27.462654790039103" fill="none" id="id38" stroke="none" /><text fill="#e1ed5e" style="font-size:6.75px; font-family:Arial;" text-anchor="middle"><textPath startOffset="19.985693538727396" xlink:href="#id38">February</textPath></text><line stroke="#e1ed5e" stroke-width="0.3" x1="172.23445277983987" x2="176.4835382374775" y1="55.19839476539836" y2="52.563006222186495" /><path d="M 173.08426987136738 54.67131705675599 a86.0,86.0 0 0,1 12.851231095245387,41.99856678651699" fill="none" id="id39" stroke="none" /><text fill="#e1ed5e" style="font-size:6.75px; font-family:Arial;" text-anchor="middle"><textPath startOffset="22.20632615414155" xlink:href="#id39">March</textPath></text><line stroke="#e1ed5e" stroke-width="0.3" x1="184.98032266829074" x2="189.97916517819016" y1="98.17113171792111" y2="98.06355123074" /><path d="M 185.9800911702706 98.14961562048488 a86.0,86.0 0 0,1 -9.607161424134198,41.387399972396054" fill="none" id="id40" stroke="none" /><text fill="#e1ed5e" style="font-size:6.75px; font-family:Arial;" text-anchor="middle"><textPath startOffset="21.466115282336823" xlink:href="#id40">April</textPath></text><line stroke="#e1ed5e" stroke-width="0.3" x1="174.80103733775053" x2="179.2010983576182" y1="140.37084112569926" y2="142.7455964860345" /><path d="M 175.68104954172406 140.8457921977663 a86.0,86.0 0 0,1 -30.038265399797805,32.042727171017184" fill="none" id="id41" stroke="none" /><text fill="#e1ed5e" style="font-size:6.75px; font-family:Arial;" text-anchor="middle"><textPath startOffset="22.206326154141568" xlink:href="#id41">May</textPath></text><line stroke="#e1ed5e" stroke-width="0.3" x1="143.8653032363475" x2="146.44561519142675" y1="172.8068346515853" y2="177.08958963109032" /><path d="M 144.38136562736335 173.6633856474863 a86.0,86.0 0 0,1 -40.68145358897372,12.25698825130547" fill="none" id="id42" stroke="none" /><text fill="#e1ed5e" style="font-size:6.75px; font-family:Arial;" text-anchor="middle"><textPath startOffset="21.466115282336833" xlink:href="#id42">June</textPath></text><line stroke="#e1ed5e" stroke-width="0.3" x1="102.19456741930631" x2="102.32365962044197" y1="184.97166512339345" y2="189.96999836594603" /><path d="M 102.22038585953345 185.97133177190398 a86.0,86.0 0 0,1 -42.740103519485714,-10.115201625700543" fill="none" id="id43" stroke="none" /><text fill="#e1ed5e" style="font-size:6.75px; font-family:Arial;" text-anchor="middle"><textPath startOffset="22.20632615414155" xlink:href="#id43">July</textPath></text><line stroke="#e1ed5e" stroke-width="0.3" x1="58.666819895761336" x2="56.23545636021788" y1="174.27360380694188" y2="178.64263932499728" /><path d="M 58.180547188652646 175.14741091055294 a86.0,86.0 0 0,1 -31.652253787137756,-30.449443065178592" fill="none" id="id44" stroke="none" /><text fill="#e1ed5e" style="font-size:6.75px; font-family:Arial;" text-anchor="middle"><textPath startOffset="22.20632615414155" xlink:href="#id44">August</textPath></text><line stroke="#e1ed5e" stroke-width="0.3" x1="26.63291911575756" x2="22.317208475507996" y1="142.92168965132927" y2="145.44649492493687" /><path d="M 25.769776987707644 143.4266507060508 a86.0,86.0 0 0,1 -11.730757126820373,-40.83630448921669" fill="none" id="id45" stroke="none" /><text fill="#e1ed5e" style="font-size:6.75px; font-family:Arial;" text-anchor="middle"><textPath startOffset="21.46611528233685" xlink:href="#id45">September</textPath></text><line stroke="#e1ed5e" stroke-width="0.3" x1="15.007084014347285" x2="10.007500721073583" y1="101.09737516637583" y2="101.16192664675087" /><path d="M 14.007167355692545 101.11028546245083 a86.0,86.0 0 0,1 10.666146001902534,-42.60595125391555" fill="none" id="id46" stroke="none" /><text fill="#e1ed5e" style="font-size:6.75px; font-family:Arial;" text-anchor="middle"><textPath startOffset="22.20632615414155" xlink:href="#id46">October</textPath></text><path d="M 79.12142395522702 97.74499172005258 l -23.59729313762684 -2.548645621022457 a44.73452839060948,44.73452839060948 0 0,0 0.08927658540006539,-0.7648672634158371 l 23.549926199223183 2.954456622763156" fill="#ffe915" stroke="none" /><path d="M 79.26566170972629 96.67025291283419 l -18.083501365749065 -2.9040466667126528 a39.315198843788,39.315198843788 0 0,0 0.11305579391136368,-0.6672616953864366 l 18.030833710317477 3.2148941504149176" fill="#ff9b0e" stroke="none" /><path d="M 79.62865764111835 94.90015583598534 l -21.223589133483365 -5.3131990653846115 a42.87854702706094,42.87854702706094 0 0,0 0.18540615972041244,-0.7144455653352267 l 21.128986641892645 5.677741056268702" fill="#ffcf13" stroke="none" /><path d="M 80.95270993114464 91.15688171328213 l -31.812278977989735 -14.769541753995947 a56.07364334363451,56.07364334363451 0 0,0 0.41398852104145434,-0.8719654055491255 l 31.55333226310653 15.314949575185604" fill="#80ff26" stroke="none" /><path d="M 81.43458229118936 90.18545643968196 l -7.557504795938534 -3.9952486494203994 a29.548560727475092,29.548560727475092 0 0,0 0.24158326460279114,-0.4476170991697662 l 7.487613432117271 4.124746731922638" fill="#ff0000" stroke="none" /><line stroke="#e1ed5e" stroke-width="0.3" x1="26.266209847984243" x2="21.928928074336255" y1="57.711370442889674" y2="55.22380399835377" /><path d="M 25.398753493254645 57.213857153982495 a86.0,86.0 0 0,1 29.58750427330803,-30.492523968695096" fill="none" id="id47" stroke="none" /><text fill="#e1ed5e" style="font-size:6.75px; font-family:Arial;" text-anchor="middle"><textPath startOffset="21.46611528233685" xlink:href="#id47">November</textPath></text><path d="M 83.17141714833178 87.43820079747576 l -19.8546784733308 -14.82064689647577 a45.77619485936778,45.77619485936778 0 0,0 0.4767788181301523,-0.627385037274416 l 19.596623714976538 15.160216709631213" fill="#fff817" stroke="none" /><path d="M 84.31358615837235 86.03803664274999 l -26.262894394606423 -23.375742403260098 a56.15913757312346,56.15913757312346 0 0,0 0.6489224699827056,-0.7165563991459039 l 25.856628284007673 23.824351589675558" fill="#7fff26" stroke="none" /><path d="M 84.5562425177563 85.77008943001954 l -22.668853814020835 -20.88712949995201 a51.824488835813845,51.824488835813845 0 0,0 0.6101289124947841,-0.650842983841246 l 22.305957579555596 21.274241900671306" fill="#b5ff20" stroke="none" /><path d="M 84.80347519578584 85.50635884689758 l -26.00779580517992 -24.804859297759208 a56.94004017006055,56.94004017006055 0 0,0 0.6825639493802004,-0.7034421489013302 l 25.5769675920966 25.248865642210664" fill="#75ff27" stroke="none" /><path d="M 85.05521093208273 85.24692304244772 l -18.274115235789992 -18.03969444999067 a46.678276100625524,46.678276100625524 0 0,0 0.5693953927088554,-0.5669502279393038 l 17.960884042913822 18.351580528580083" fill="#faff18" stroke="none" /><path d="M 89.00827224532344 82.1063720568725 l -11.0144099277181 -17.930552653637577 a42.043334919177724,42.043334919177724 0 0,0 0.6199148263663595,-0.37349174661140155 l 10.704133035134092 18.117491009707596" fill="#ffc312" stroke="none" /><line stroke="#e1ed5e" stroke-width="0.3" x1="56.762969772571076" x2="54.21961505331055" y1="26.818313649435495" y2="22.513508569990535" /><path d="M 56.25429882871897 25.957352633546506 a86.0,86.0 0 0,1 42.265352541879196,-11.944610805530505" fill="none" id="id48" stroke="none" /><text fill="#e1ed5e" style="font-size:6.75px; font-family:Arial;" text-anchor="middle"><textPath startOffset="22.20632615414155" xlink:href="#id48">December</textPath></text><path d="M 89.63071344664047 81.73862282372117 l -10.487028152910863 -18.468732209595828 a42.238451659895254,42.238451659895254 0 0,0 0.6353385425836087,-0.35356521108133565 l 10.16756552125521 18.646512818237348" fill="#ffc612" stroke="none" /><path d="M 90.91171255644093 81.06846463323043 l -12.290205880108624 -25.6013543507641 a49.398565195601776,49.398565195601776 0 0,0 0.7697279458351295,-0.3613975914945236 l 11.847699722973887 25.809116924898632" fill="#d5ff1c" stroke="none" /><path d="M 96.40284397218896 79.31037775812273 l -10.791468083433102 -62.06886672563182 a84.0,84.0 0 0,0 1.4266831754444573,-0.235414948241492 l 9.72145570184976 62.24542793681294" fill="#4dd2ff" stroke="none" /></svg>