<?xml version="1.0" encoding="utf-8" ?>
<svg baseProfile="full" height="200mm" version="1.1" viewBox="0,0,200,200" width="200mm" xmlns="http://www.w3.org/2000/svg" xmlns:ev="http://www.w3.org/2001/xml-events" xmlns:xlink="http://www.w3.org/1999/xlink"><defs /><rect fill="#1a1a1a" height="200" width="200" x="0" y="0" /><text alignment-baseline="middle" fill="#e1ed5e" style="dominant-baseline: central; font-size:9.0px; font-family:Arial;" text-anchor="middle" x="100.0" y="100.0">2017</text><line stroke="#e1ed5e" stroke-width="0.3" x1="100.0" x2="100.0" y1="15.0" y2="10.0" /><path d="M 100.0 14.0 a86.0,86.0 0 0,1 42.46469731375804,11.215312516191453" fill="none" id="id13" stroke="none" /><text fill="#e1ed5e" style="font-size:6.75px; font-family:Arial;" text-anchor="middle"><textPath startOffset="22.20632615414155" xlink:href="#id13">January</textPath></text><line stroke="#e1ed5e" stroke-width="0.3" x1="143.23703022742887" x2="145.7803849466894" y1="26.81831364943548" y2="22.513508569990506" /><path d="M 143.74570117128098 25.957352633546492 a86.0,86.0 0 0,1 28.547481713284135,27.462654790039103" fill="none" id="id14" stroke="none" /><text fill="#e1ed5e" style="font-size:6.75px; font-family:Arial;" text-anchor="middle"><textPath startOffset="19.985693538727396" xlink:href="#id14">February</textPath></text><path d="M 113.06298171725822 83.55741782278167 l 3.393187866180509 -4.27105935995472 a26.454875979474828,26.454875979474828 0 0,0 0.3541131299632501,0.2863348575127745 l -3.4662043947082504 4.212018405177816" fill="#ff0400" stroke="none" /><path d="M 113.34407831869373 83.78471172551755 l 9.214054056672135 -11.19661764097237 a35.500449605353964,35.500449605353964 0 0,0 0.4685086686993585,0.39236253644769986 l -9.40542026233061 11.036353947130852" fill="#ff8c0c" stroke="none" /><path d="M 113.6212207817346 84.01681056812373 l 12.697806527179942 -14.899651826022813 a40.5763611311806,40.5763611311806 0 0,0 0.5276978977749438,0.45761441692899774 l -12.95239822360165 14.678872415674144" fill="#ffd213" stroke="none" /><path d="M 113.89432698308785 84.25364557470407 l 3.9009878733530425 -4.4209653146472325 a26.895985134085855,26.895985134085855 0 0,0 0.34451068946908037,0.3093050985718083 l -3.976509550418113 4.353161207306126" fill="#ff0b01" stroke="none" /><path d="M 114.16331599549186 84.49514656593476 l 4.340968915509525 -4.7521418584625 a27.436370356681735,27.436370356681735 0 0,0 0.3459492651301948,0.321522139025574 l -4.422126064434567 4.676715133362285" fill="#ff1402" stroke="none" /><path d="M 114.42810811169701 84.74124197986012 l 8.425623584122482 -8.910700588296818 a33.263430097472494,33.263430097472494 0 0,0 0.4126514721580284,0.3969703892726904 l -8.577758299892928 8.764347112261826" fill="#ff6b09" stroke="none" /><path d="M 114.68862486808459 84.99185889309783 l 3.958322118396439 -4.044426039400409 a26.659125019043717,26.659125019043717 0 0,0 0.3251958775591736,0.32379938311402495 l -4.027353796122935 3.9756908056362654" fill="#ff0801" stroke="none" /><path d="M 115.19652480421416 85.50635884689758 l 22.722764903791102 -21.671770668944628 a52.4004727480382,52.4004727480382 0 0,0 0.6169099622624409,0.6580765349383673 l -23.092442188024005 21.27742471712821" fill="#96ff23" stroke="none" /><path d="M 115.4437574822437 85.77008943001954 l 6.788348306470168 -6.254798382453944 a30.230610788843006,30.230610788843006 0 0,0 0.34931666457020183,0.38572418571474204 l -6.895008611656406 6.137021409469653" fill="#ff3e05" stroke="none" /><path d="M 115.68641384162765 86.03803664274999 l 8.788374999522517 -7.822244838873482 a32.76533252617686,32.76533252617686 0 0,0 0.3713531301813081,0.42452082267668073 l -8.921719993281673 7.669808459993853" fill="#ff6409" stroke="none" /><path d="M 116.15771136456269 86.58626213691792 l 5.4338363055860714 -4.511038361156081 a28.06229736641888,28.06229736641888 0 0,0 0.30534653638223497,0.3743187490237537 l -5.510681334044715 4.416835442524227" fill="#ff1d03" stroke="none" /><path d="M 116.38621287248628 86.86637796730983 l 5.112516846775744 -4.097704846374642 a27.552023619964142,27.552023619964142 0 0,0 0.2934236978087476,0.37261829857406464 l -5.182294625178455 4.009094153847538" fill="#ff1502" stroke="none" /><path d="M 116.60985879189232 87.15038557335679 l 9.18087165021033 -7.102448147439199 a32.60746199410958,32.60746199410958 0 0,0 0.3396207841114081,0.44690114198977754 l -9.301768374545851 6.943362229568389" fill="#ff6209" stroke="none" /><path d="M 116.82858285166822 87.43820079747576 l 8.541844730190052 -6.376112550032733 a31.659170823537846,31.659170823537846 0 0,0 0.32222611722894295,0.4395160617752842 l -8.65033345993262 6.228134044585955" fill="#ff5407" stroke="none" /><path d="M 117.04232023915458 87.72973835380427 l 17.5353455733287 -12.625233842682269 a42.607518921858386,42.607518921858386 0 0,0 0.4234119762123388,0.5988862129687753 l -17.750070169344923 12.321521129381699" fill="#ffed16" stroke="none" /><path d="M 117.2510076193507 88.02491185347247 l 8.595790807499915 -5.966918274006122 a31.46382976232738,31.46382976232738 0 0,0 0.3050126645701812,0.44756844867075485 l -8.69722793773883 5.818071802064962" fill="#ff5107" stroke="none" /><path d="M 117.45458315368197 88.32363383020206 l 8.930160892263437 -5.973893940359251 a31.744076617949645,31.744076617949645 0 0,0 0.29991102897414446,0.4567850728406226 l -9.031668556595505 5.819290803540954" fill="#ff5507" stroke="none" /><path d="M 117.65298651832404 88.62581576622439 l 18.680960999216435 -12.03652944777966 a43.22287886394363,43.22287886394363 0 0,0 0.3975936860627556,0.6288977290210426 l -18.885382281525146 11.713184071044411" fill="#fff517" stroke="none" /><line stroke="#e1ed5e" stroke-width="0.3" x1="172.23445277983987" x2="176.4835382374775" y1="55.19839476539836" y2="52.563006222186495" /><path d="M 173.08426987136738 54.67131705675599 a86.0,86.0 0 0,1 12.851231095245387,41.99856678651699" fill="none" id="id15" stroke="none" /><text fill="#e1ed5e" style="font-size:6.75px; font-family:Arial;" text-anchor="middle"><textPath startOffset="22.20632615414155" xlink:href="#id15">March</textPath></text><path d="M 117.84615892207809 88.93136811851018 l 9.699150744478516 -6.015654663979063 a32.41322155223367,32.41322155223367 0 0,0 0.2899967741101517,0.4766784471194545 l -9.801263316874891 5.847808443652527" fill="#ff5f08" stroke="none" /><path d="M 118.03404312379186 89.2402003453031 l 9.79551695011034 -5.844379941529928 a32.4065301130912,32.4065301130912 0 0,0 0.2816904074348004,0.4815002175932335 l -9.894667032015468 5.674900311582799" fill="#ff5f08" stroke="none" /><path d="M 118.21658344932153 89.55222093294921 l 9.795875854119709 -5.618240488224591 a32.29264406296646,32.29264406296646 0 0,0 0.2723997684865614,0.48456879295461935 l -9.891133263898704 5.448788185335178" fill="#ff5d08" stroke="none" /><path d="M 118.3937258080291 89.86733742301442 l 10.296848608995822 -5.672287042341074 a32.75584669716689,32.75584669716689 0 0,0 0.2678054086259597,0.4962027495912124 l -10.392962116840245 5.4942033094174025" fill="#ff6409" stroke="none" /><path d="M 118.56541770881063 90.18545643968196 l 10.210841113548021 -5.39792567386428 a32.54984319489601,32.54984319489601 0 0,0 0.2575941376718618,0.497589883414767 l -10.30224468438 5.221363068189168" fill="#ff6108" stroke="none" /><path d="M 118.89224826269711 90.83032412892265 l 10.287678490346131 -4.993300739573322 a32.435444066434584,32.435444066434584 0 0,0 0.2394690396002243,0.5043828696172022 l -10.372105723788112 4.815475454315579" fill="#ff5f08" stroke="none" /><path d="M 119.04729006885535 91.15688171328212 l 10.928382364176853 -5.073738971766767 a33.048749655100174,33.048749655100174 0 0,0 0.23511460122525482,0.5180438581784498 l -11.014099282365455 4.884873104746255" fill="#ff6809" stroke="none" /><path d="M 119.196687751892 91.48605970444005 l 10.584821238721922 -4.694483612506084 a32.57914578212861,32.57914578212861 0 0,0 0.222948853061025,0.5145966916461825 l -10.664060801625627 4.5115877762732985" fill="#ff6109" stroke="none" /><path d="M 119.34039704204932 91.81776055985345 l 4.989092155651199 -2.1107088193557306 a26.417207053241217,26.417207053241217 0 0,0 0.17357150792306053,0.4203171740042025 l -5.024685350460457 2.024517074898225" fill="#ff0400" stroke="none" /><path d="M 119.47837535516314 92.15188598940014 l 4.798994483341244 -1.933583019875344 a26.17388551727712,26.17388551727712 0 0,0 0.1647788804781896,0.4193442775253193 l -4.831566913701134 1.8506897374542406" fill="#ff0000" stroke="none" /><path d="M 119.7369772167798 92.82701384747503 l 11.279258294469996 -4.099207425147239 a33.00104867033512,33.00104867033512 0 0,0 0.18943689272640143,0.5355636055838584 l -11.348148268006206 3.904446193136766" fill="#ff6809" stroke="none" /><path d="M 119.85752413597 93.16781622104841 l 10.704604838544006 -3.6830285103624 a32.320479837777285,32.320479837777285 0 0,0 0.1764739849902136,0.527634753087957 l -10.766416117305988 3.4982206543521293" fill="#ff5e08" stroke="none" /><path d="M 119.97218684219823 93.5106431181261 l 11.374478152127125 -3.6957919859969754 a32.95983409738516,32.95983409738516 0 0,0 0.1706762482857301,0.5410903485564938 l -11.43640988418106 3.4994514710140625" fill="#ff6709" stroke="none" /><path d="M 120.08093135843002 93.85539295169968 l 10.862154732439146 -3.323733911408201 a32.359296305022376,32.359296305022376 0 0,0 0.1583973730367325,0.5340371983277311 l -10.917758002587581 3.13626732633394" fill="#ff5e08" stroke="none" /><path d="M 120.18372546131832 94.20196356495316 l 11.225214359332005 -3.224588145104852 a32.67918687745445,32.67918687745445 0 0,0 0.1506560769938902,0.5419900668036715 l -11.279057206892258 3.0308867748822284" fill="#ff6309" stroke="none" /><path d="M 120.28053869075195 94.5502522615342 l 11.091068552878644 -2.9803708217465705 a32.48452924066859,32.48452924066859 0 0,0 0.140462591072339,0.5412596616987061 l -11.140727475821286 2.7890147344990144" fill="#ff6008" stroke="none" /><path d="M 120.45610955862082 95.25157060432595 l 50.41578852845596 -11.702900376465687 a72.7562518945052,72.7562518945052 0 0,0 0.2726821621329141,1.2223806652430111 l -50.609765077590914 10.833341541672713" fill="#3effb6" stroke="none" /><path d="M 120.6074358757038 95.95851677861258 l 10.180900369712843 -1.9966549099552298 a31.37484280206054,31.37484280206054 0 0,0 0.09937499792481043,0.5308652125589536 l -10.213761091547513 1.8211116199337134" fill="#ff5007" stroke="none" /><path d="M 120.67395015179393 96.31383870115 l 37.75188010519411 -6.731152894383672 a59.347266796533496,59.347266796533496 0 0,0 0.1706605221764445,1.0072480624236255 l -37.86215248889078 6.0803190436442085" fill="#48ff2c" stroke="none" /><path d="M 120.73433829027371 96.67025291283417 l 10.440125062633964 -1.6765896036942454 a31.573890675747194,31.573890675747194 0 0,0 0.08155702335005365,0.5373588834641623 l -10.467437979423316 1.4966316078380009" fill="#ff5207" stroke="none" /><path d="M 120.87857604477298 97.74499172005257 l 10.507078871617352 -1.1348259480315266 a31.568185101838132,31.568185101838132 0 0,0 0.053700300420624035,0.5407546967801373 l -10.525056297720205 0.9537957205469542" fill="#ff5207" stroke="none" /><path d="M 120.94382443527127 98.46500227214037 l 11.293497905036105 -0.8277138531883143 a32.32378934605438,32.32378934605438 0 0,0 0.03589388876417898,0.5552625721706395 l -11.3060723848047 0.6331922167646397" fill="#ff5e08" stroke="none" /><path d="M 120.96714384426684 98.82574320788733 l 10.422724938226434 -0.5837206842257173 a31.43905766700808,31.43905766700808 0 0,0 0.025609944629596978,0.5405854543712211 l -10.431228491089527 0.40422412323149653" fill="#ff5007" stroke="none" /><path d="M 120.98425023603335 99.18683210126433 l 5.271537847122156 -0.2042791763362128 a26.275494408633744,26.275494408633744 0 0,0 0.013623600545247331,0.4521009771908044 l -5.274273142123048 0.11350805172040933" fill="#ff0200" stroke="none" /><line stroke="#e1ed5e" stroke-width="0.3" x1="184.98032266829074" x2="189.97916517819016" y1="98.17113171792111" y2="98.06355123074" /><path d="M 185.9800911702706 98.14961562048488 a86.0,86.0 0 0,1 -9.607161424134198,41.387399972396054" fill="none" id="id16" stroke="none" /><text fill="#e1ed5e" style="font-size:6.75px; font-family:Arial;" text-anchor="middle"><textPath startOffset="21.466115282336823" xlink:href="#id16">April</textPath></text><path d="M 120.99513854157772 99.54816195383933 l 11.715619025828072 -0.25213276872213986 a32.71833179643793,32.71833179643793 0 0,0 0.007271248648295084,0.5631662210076094 l -11.718223281594083 0.05043028965406776" fill="#ff6309" stroke="none" /><path d="M 120.99824983174949 100.27111621757518 l 11.722555397336139 0.15135427500419224 a32.72353245230194,32.72353245230194 0 0,0 -0.012120075435196607,0.5631722805516476 l -11.718213259215936 -0.35311637134595464" fill="#ff6309" stroke="none" /><path d="M 120.9904718944345 100.63252640178507 l 11.659733063906886 0.3513541304730218 a32.6650257113546,32.6650257113546 0 0,0 -0.02177336620569398,0.5618738339911324 l -11.65195756484999 -0.5520052114781604" fill="#ff6309" stroke="none" /><path d="M 120.95626037817324 101.35467743843564 l 10.506270617564573 0.679157803485675 a31.528199162797794,31.528199162797794 0 0,0 -0.03967064385701264,0.5412744169556496 l -10.493023415043222 -0.8599053569380949" fill="#ff5207" stroke="none" /><path d="M 120.92983693683757 101.71520430193887 l 12.146137969435154 0.9953784236345822 a33.18685545080402,33.18685545080402 0 0,0 -0.05155878844651543,0.5689469341827508 l -12.127204584711563 -1.2043067463659034" fill="#ff6a09" stroke="none" /><path d="M 120.89721153311464 102.0752229133903 l 5.23550604740466 0.5199182721364868 a26.26125826985448,26.26125826985448 0 0,0 -0.04854293360581995,0.44944727686281616 l -5.2257808122977885 -0.6099618708840944" fill="#ff0100" stroke="none" /><path d="M 120.81339534386255 102.79330883721812 l 10.521195612442117 1.4120208739032682 a31.615524483680012,31.615524483680012 0 0,0 -0.0770303958483506,0.5387504091523392 l -10.495331165577165 -1.5929167550360168" fill="#ff5307" stroke="none" /><path d="M 120.70491114924044 103.5080841355445 l 11.541455303159145 1.955497222773344 a32.705945493769164,32.705945493769164 0 0,0 -0.09882421896382061,0.5542587019416113 l -11.506084641856136 -2.153874675448174" fill="#ff6309" stroke="none" /><path d="M 120.64145759157962 103.86396538481128 l 11.489314804427522 2.150735455698523 a32.688884364028766,32.688884364028766 0 0,0 -0.10829370838839268,0.5521872859810713 l -11.450591163063466 -2.348186468747539" fill="#ff6309" stroke="none" /><path d="M 120.5718875245553 104.21870165774334 l 12.035263456112828 2.4680859173994807 a33.28572401422523,33.28572401422523 0 0,0 -0.11993315734710672,0.5602877833217133 l -11.990996260041278 -2.674887520137363" fill="#ff6c09" stroke="none" /><path d="M 120.49622156327973 104.57218783832717 l 11.77498126190439 2.626700045956893 a33.064399564405576,33.064399564405576 0 0,0 -0.12869834801145655,0.5544291148846505 l -11.728022347962382 -2.8289978181901083" fill="#ff6809" stroke="none" /><path d="M 120.32669344350535 105.2749913415812 l 31.353375207427458 8.136531561721892 a53.39193237138876,53.39193237138876 0 0,0 -0.23851428017093884,0.8876003660061794 l -31.20867285091474 -8.675022860903619" fill="#8bff24" stroke="none" /><path d="M 120.23288151984713 105.62410040840565 l 11.13114153668568 3.0941048906497093 a32.55317259388397,32.55317259388397 0 0,0 -0.1547164913136788,0.5385884031597191 l -11.076232408485902 -3.2852507693140107" fill="#ff6108" stroke="none" /><path d="M 120.13307415673323 105.97154293290107 l 13.930712689287173 4.131899990154616 a35.53056618167738,35.53056618167738 0 0,0 -0.17896107903430808,0.5848551609028532 l -13.857524837746732 -4.371082123609526" fill="#ff8c0c" stroke="none" /><path d="M 120.02730092923936 106.31721596034902 l 11.725331507585928 3.698523910027366 a33.29481508912726,33.29481508912726 0 0,0 -0.17710899268746194,0.5450854310798978 l -11.659930263882218 -3.899808241085059" fill="#ff6c09" stroke="none" /><path d="M 119.9155931802556 106.66101706037122 l 20.22858650517354 6.765701558502447 a42.33003585500998,42.33003585500998 0 0,0 -0.2370666830024272,0.6890267492595742 l -20.10912899122788 -7.1129010108513215" fill="#ffea16" stroke="none" /><path d="M 119.79798401119884 107.00284435728193 l 15.938637759366761 5.637735611504993 a37.90633716833849,37.90633716833849 0 0,0 -0.2228815711640779,0.6132743600176845 l -15.839231927197456 -5.911257768528808" fill="#ffae10" stroke="none" /><path d="M 119.67450827220406 107.3425965602758 l 15.6200920643214 5.829473991210911 a37.672433628960135,37.672433628960135 0 0,0 -0.2319648176123092,0.6055869415799755 l -15.517432967115582 -6.097484499624031" fill="#ffaa0f" stroke="none" /><path d="M 119.54520255179757 107.68017299344265 l 10.436862148791704 4.101103920463686 a32.21370344174143,32.21370344174143 0 0,0 -0.2072374819079479,0.514346434673335 l -10.364722052626362 -4.280149722979835" fill="#ff5c08" stroke="none" /><path d="M 119.12269723197855 108.67885076344098 l 14.866740808592754 6.74728168580561 a37.326230196144024,37.326230196144024 0 0,0 -0.2705714139777467,0.5827867545450754 l -14.748394777775177 -7.002188507629516" fill="#ffa60f" stroke="none" /><path d="M 118.97047184881838 109.00673069616215 l 14.702969768743303 6.980621789285275 a37.275945459039356,37.275945459039356 0 0,0 -0.2801850760627091,0.5772642447674113 l -14.580631436065879 -7.232674990017962" fill="#ffa50f" stroke="none" /><path d="M 118.81262510543309 109.33194174019688 l 14.919963227301727 7.400999425797796 a37.65473191632621,37.65473191632621 0 0,0 -0.29302792279083145,0.5781718912325486 l -14.790356634724626 -7.656725528733039" fill="#ffaa0f" stroke="none" /><path d="M 118.64920377521936 109.65438752849418 l 15.096877990018744 7.815406616968071 a37.999891341831,37.999891341831 0 0,0 -0.3057136347585214,0.5782949857717903 l -14.960111847035328 -8.074116617825995" fill="#ffaf10" stroke="none" /><line stroke="#e1ed5e" stroke-width="0.3" x1="174.80103733775053" x2="179.2010983576182" y1="140.37084112569926" y2="142.7455964860345" /><path d="M 175.68104954172406 140.8457921977663 a86.0,86.0 0 0,1 -30.038265399797805,32.042727171017184" fill="none" id="id17" stroke="none" /><text fill="#e1ed5e" style="font-size:6.75px; font-family:Arial;" text-anchor="middle"><textPath startOffset="22.206326154141568" xlink:href="#id17">May</textPath></text><path d="M 118.48025628344425 109.97397251340804 l 14.964994584448569 8.076751878290077 a38.00543983012604,38.00543983012604 0 0,0 -0.3156688226450093,0.5730306053083914 l -14.82374935235205 -8.333153001996273" fill="#ffaf10" stroke="none" /><path d="M 118.30583269289576 110.29060199501025 l 14.960053674492208 8.409776313968766 a38.16180478838627,38.16180478838627 0 0,0 -0.3268249721149445,0.5698468870412884 l -14.813076706224885 -8.66604304686837" fill="#ffb110" stroke="none" /><path d="M 117.94076556474637 110.91462005526583 l 19.83406255266335 12.066444775360216 a44.21613936165487,44.21613936165487 0 0,0 -0.4011780021792609,0.646826677369748 l -19.623419910816125 -12.406067784095239" fill="#fcff18" stroke="none" /><path d="M 117.75023020441432 111.22182372390056 l 14.122969819636783 8.928643513283426 a37.70864900324588,37.70864900324588 0 0,0 -0.3515795277836849,0.5456592346776122 l -13.967185428476046 -9.17042434788249" fill="#ffab0f" stroke="none" /><path d="M 117.55443506779139 111.5257021239791 l 18.361530243116587 12.05561599136221 a42.965510915980836,42.965510915980836 0 0,0 -0.41123496516923397,0.6147404758352234 l -18.151292172536632 -12.369893381403239" fill="#fff216" stroke="none" /><path d="M 117.35343817320211 111.8261652097733 l 14.221048311516618 9.691478144537045 a38.2093859188679,38.2093859188679 0 0,0 -0.3750689595812989,0.5403148102417181 l -14.052118444773182 -9.934834216965783" fill="#ffb210" stroke="none" /><path d="M 117.14729908036423 112.12312394758627 l 17.53443075637 12.396825669954257 a42.474113454137544,42.474113454137544 0 0,0 -0.4272090982116731,0.5933560726523777 l -17.318441865782724 -12.696815348057767" fill="#ffec16" stroke="none" /><path d="M 116.93607887273984 112.41649034213515 l 13.707983599178869 10.049849628612195 a37.99730248930911,37.99730248930911 0 0,0 -0.39126135996626793,0.524158530692452 l -13.53296097251751 -10.284321038813962" fill="#ffaf10" stroke="none" /><path d="M 116.71984013943494 112.70617746262583 l 12.339424240943217 9.377297443308588 a36.498228864559294,36.498228864559294 0 0,0 -0.38443616230739214,0.496935562298494 l -12.176181261417756 -9.588310999720335" fill="#ff9a0e" stroke="none" /><path d="M 116.27256486870786 113.27417163493432 l 48.81769460612357 39.822514904802965 a84.0,84.0 0 0,0 -0.9236160004258265,1.1125549715449181 l -48.12498260580419 -40.656931133461654" fill="#4dd2ff" stroke="none" /><path d="M 116.0416608686014 113.55231037782055 l 8.461353153112407 7.148317439609828 a32.07668449488001,32.07668449488001 0 0,0 -0.3599576652073017,0.41871208585794983 l -8.337052978334325 -7.292906624629306" fill="#ff5a08" stroke="none" /><path d="M 115.80600337817218 113.82643327865902 l 12.251757695637295 10.717327225107532 a37.27779682520453,37.27779682520453 0 0,0 -0.42663755102596096,0.47933181133129266 l -12.065461294962995 -10.926633206179691" fill="#ffa50f" stroke="none" /><path d="M 115.56566222782051 114.09645910891815 l 12.405332576229732 11.234424904891311 a37.73632514235155,37.73632514235155 0 0,0 -0.4401737329838267,0.4777216517858572 l -12.210112435250183 -11.446297811478503" fill="#ffab0f" stroke="none" /><path d="M 115.32070863581623 114.36230785411682 l 12.472814874494565 11.692566662100386 a38.096409741260715,38.096409741260715 0 0,0 -0.45260974506795937,0.4745595081938407 l -12.269698578047642 -11.905533286876734" fill="#ffb010" stroke="none" /><path d="M 115.07121518719521 114.62390073753431 l 12.26185788567689 11.897925306662847 a38.08548464081323,38.08548464081323 0 0,0 -0.4605793273256156,0.46656442691440925 l -12.055237933295738 -12.10723022755792" fill="#ffb010" stroke="none" /><path d="M 114.81725581225074 114.88116024355365 l 7.33626265811589 7.367902774139809 a31.39743915962208,31.39743915962208 0 0,0 -0.38626332867459373,0.3780399647621548 l -7.2083493770655025 -7.493092841824536" fill="#ff5007" stroke="none" /><path d="M 114.29624159901734 115.38237550388516 l 11.57280941789929 12.45203495394633 a37.99950270794177,37.99950270794177 0 0,0 -0.4829563996564182,0.4411692203004254 l -11.356753468776008 -12.649396940833338" fill="#ffaf10" stroke="none" /><path d="M 113.75828350139079 115.86535959552629 l 23.007034609116403 26.530553558040275 a56.11686081643864,56.11686081643864 0 0,0 -0.7352231312725246,0.6265731027956415 l -22.546946001266832 -26.922651051058864" fill="#6cff28" stroke="none" /><path d="M 113.48314897796784 116.09983520530334 l 15.106920964899892 18.03873400730517 a44.52902432371644,44.52902432371644 0 0,0 -0.5918752778813949,0.4870730590326237 l -14.794175558473807 -18.29610218519497" fill="#f8ff18" stroke="none" /><path d="M 113.20401910651253 116.32954008644616 l 3.25835082333061 4.029634458726202 a26.18216209307012,26.18216209307012 0 0,0 -0.3528888002334902,0.2803562053691446 l -3.1885045303797686 -4.085124578100473" fill="#ff0000" stroke="none" /><path d="M 112.92097659922987 116.55440617244103 l 9.93922433119582 12.734173408179615 a37.15386494605622,37.15386494605622 0 0,0 -0.5075417370693409,0.3891613612948323 l -9.718553865632986 -12.903374111301819" fill="#ffa30f" stroke="none" /><path d="M 112.63410532772338 116.77436683061366 l 6.281789931504964 8.340364903615034 a31.44138743027049,31.44138743027049 0 0,0 -0.43511141610140186,0.32188502358698257 l -6.137293544984998 -8.447259875941786" fill="#ff5007" stroke="none" /><path d="M 112.34349029814194 116.9893568818739 l 18.022368936018903 24.805662767597713 a51.66148540768634,51.66148540768634 0 0,0 -0.7239315884864627,0.5165059668092801 l -17.592710019683558 -25.112212996251213" fill="#9fff22" stroke="none" /><path d="M 112.04921762599082 117.19931262002967 l 9.037379312798276 12.900149776639521 a36.75081233153157,36.75081233153157 0 0,0 -0.5212369732125296,0.35851154306805344 l -8.813985454962863 -13.05380210907267" fill="#ff9d0e" stroke="none" /><path d="M 111.7513745106137 117.40417183066458 l 9.162192318053325 13.569507916284374 a37.373066700013766,37.373066700013766 0 0,0 -0.5362595515425268,0.3554035894228047 l -8.927258067770834 -13.725209526798498" fill="#ffa60f" stroke="none" /><path d="M 111.45004920935366 117.60387380957326 l 8.904482549783706 13.69019331531658 a37.33129518715957,37.33129518715957 0 0,0 -0.5416916665088267,0.3457332508200821 l -8.667509081227948 -13.841440994960472" fill="#ffa60f" stroke="none" /><path d="M 111.1453310114006 117.79835938074945 l 8.631172729769373 13.783414235487522 a37.262830340323745,37.262830340323745 0 0,0 -0.5465584197244362,0.3357408218574612 l -8.392635110112627 -13.92994352417336" fill="#ffa50f" stroke="none" /><line stroke="#e1ed5e" stroke-width="0.3" x1="143.8653032363475" x2="146.44561519142675" y1="172.8068346515853" y2="177.08958963109032" /><path d="M 144.38136562736335 173.6633856474863 a86.0,86.0 0 0,1 -40.68145358897372,12.25698825130547" fill="none" id="id18" stroke="none" /><text fill="#e1ed5e" style="font-size:6.75px; font-family:Arial;" text-anchor="middle"><textPath startOffset="21.466115282336833" xlink:href="#id18">June</textPath></text><path d="M 110.8373102113329 117.98757091392108 l 8.107256285767056 13.4562769279289 a36.709837467148446,36.709837467148446 0 0,0 -0.5440609937667941,0.32144082496779347 l -7.87442742097188 -13.593836325190445" fill="#ff9d0e" stroke="none" /><path d="M 110.5260780823613 118.17145234162733 l 8.3066306261337 14.339960369021853 a37.57210233326296,37.57210233326296 0 0,0 -0.5624207951344812,0.31935720575846155 l -8.058561064078019 -14.480820740574943" fill="#ffa90f" stroke="none" /><path d="M 110.21172684928248 118.3499491758327 l 8.034218588351163 14.437078560726768 a37.52204302421477,37.52204302421477 0 0,0 -0.567078119427089,0.3092162052577361 l -7.784517657055425 -14.573235417744275" fill="#ffa80f" stroke="none" /><path d="M 109.57404056367764 118.69057910512821 l 15.176117947065977 29.62703480435591 a54.28777173740794,54.28777173740794 0 0,0 -0.8353752998835072,0.4188745174683417 l -14.66388873949971 -29.883877162733555" fill="#80ff25" stroke="none" /><path d="M 109.2508944713604 118.85261126421891 l 6.866099643659914 13.992582866884318 a36.58639469548014,36.58639469548014 0 0,0 -0.5677639311809742,0.2725611899241452 l -6.624223044478708 -14.108698333308023" fill="#ff9b0e" stroke="none" /><path d="M 107.59598834532513 119.57807347666477 l 5.768052031471148 14.866708761983242 a36.94645583355084,36.94645583355084 0 0,0 -0.5948903311756574,0.22493662050845478 l -5.511291479535216 -14.963793632598327" fill="#ffa00e" stroke="none" /><path d="M 107.2578585660854 119.70592522655815 l 1.875982067139535 5.093508230397315 a26.427995468803775,26.427995468803775 0 0,0 -0.4282347576095203,0.15354974821588288 l -1.78802774890028 -5.125045519653159" fill="#ff0400" stroke="none" /><path d="M 106.91757812671514 119.82793768551818 l 1.7530294228480785 5.024729395230865 a26.321749491724333,26.321749491724333 0 0,0 -0.4290824539553048,0.14556806502784345 l -1.6662772359555469 -5.054160447156831" fill="#ff0200" stroke="none" /><path d="M 104.83641907484287 120.43548508189849 l 2.379174084550311 10.052804721775901 a31.33050589752291,31.33050589752291 0 0,0 -0.5258748589621395,0.11968740579823382 l -2.2057790761953093 -10.092268861151819" fill="#ff4f07" stroke="none" /><path d="M 104.48393922423573 120.51570834832081 l 2.570615031447424 11.761530570248505 a33.039172022809275,33.039172022809275 0 0,0 -0.556644817570168,0.11665033367801392 l -2.3677787524478777 -11.80403688465306" fill="#ff6809" stroke="none" /><path d="M 104.13013068566511 120.58985236759428 l 2.2963800004387003 11.448094209957116 a32.67613900852797,32.67613900852797 0 0,0 -0.5524327418468699,0.10587504977595961 l -2.098979644020126 -11.485926458081543" fill="#ff6309" stroke="none" /><path d="M 103.41894727170886 120.7198165907248 l 2.6840529450543587 16.266142856752655 a37.4861015297171,37.4861015297171 0 0,0 -0.6375567180735644,0.09957324734694607 l -2.403660363372277 -16.309934411446708" fill="#ffa80f" stroke="none" /><path d="M 101.98527174616119 120.90594882070398 l 1.6418888184961746 17.289947169771576 a38.3677307678866,38.3677307678866 0 0,0 -0.6580169643531925,0.05677647247538132 l -1.3440275364014405 -17.31564789452562" fill="#ffb410" stroke="none" /><path d="M 100.90346689309514 120.98055641714683 l 0.2343039139000602 5.4410698631110215 a26.446112336274737,26.446112336274737 0 0,0 -0.45497343640104654,0.01567020507840164 l -0.14061012582436141 -5.444296866615517" fill="#ff0400" stroke="none" /><line stroke="#e1ed5e" stroke-width="0.3" x1="102.19456741930631" x2="102.32365962044197" y1="184.97166512339345" y2="189.96999836594603" /><path d="M 102.22038585953345 185.97133177190398 a86.0,86.0 0 0,1 -42.740103519485714,-10.115201625700543" fill="none" id="id19" stroke="none" /><text fill="#e1ed5e" style="font-size:6.75px; font-family:Arial;" text-anchor="middle"><textPath startOffset="22.20632615414155" xlink:href="#id19">July</textPath></text><path d="M 99.45781275523022 120.99299961872073 l -0.26734792154882936 10.351469661599047 a31.35492149010131,31.35492149010131 0 0,0 -0.5394235718672847,-0.01857883849692069 l 0.4454918450907572 -10.345334024676033" fill="#ff4f07" stroke="none" /><path d="M 98.01472825383883 120.90594882070398 l -0.5034914455599737 5.302028003416975 a26.32588063936565,26.32588063936565 0 0,0 -0.4507585020746566,-0.04672296178035329 l 0.5946825442402236 -5.292575673180861" fill="#ff0200" stroke="none" /><path d="M 97.65516085044442 120.86867818915974 l -0.6945800407459066 6.181646766554121 a27.22054645344375,27.22054645344375 0 0,0 -0.4651765548427011,-0.05632640256864217 l 0.800884018639997 -6.16877483526013" fill="#ff1001" stroke="none" /><path d="M 96.93821686468263 120.77559828337769 l -0.9989592147221934 6.7783949513444295 a27.85160985674827,27.85160985674827 0 0,0 -0.47369505626657177,-0.07398142575797388 l 1.1154901345972823 -6.76019521823935" fill="#ff1a02" stroke="none" /><path d="M 95.51606077576429 120.51570834832081 l -4.596654732464194 21.031424190464598 a42.52788977602647,42.52788977602647 0 0,0 -0.7138202016614578,-0.16246315389909255 l 4.957995083518515 -20.94918430298782" fill="#ffec16" stroke="none" /><line stroke="#e1ed5e" stroke-width="0.3" x1="58.666819895761336" x2="56.23545636021788" y1="174.27360380694188" y2="178.64263932499728" /><path d="M 58.180547188652646 175.14741091055294 a86.0,86.0 0 0,1 -31.652253787137756,-30.449443065178592" fill="none" id="id20" stroke="none" /><text fill="#e1ed5e" style="font-size:6.75px; font-family:Arial;" text-anchor="middle"><textPath startOffset="22.20632615414155" xlink:href="#id20">August</textPath></text><path d="M 89.7882731507175 118.34994917583269 l -5.558778136194527 9.988839085141278 a32.43140064192837,32.43140064192837 0 0,0 -0.48546908486964446,-0.2756620163538151 l 5.729895987985379 -9.89167390299283" fill="#ff5f08" stroke="none" /><path d="M 89.4739219176387 118.17145234162733 l -5.471347894618202 9.44533535981661 a31.91558554743377,31.91558554743377 0 0,0 -0.473007411300172,-0.2794611160258617 l 5.633123176946756 -9.349755671497" fill="#ff5808" stroke="none" /><path d="M 88.8546689885994 117.79835938074946 l -2.781467582282297 4.441820488303598 a26.240833059886658,26.240833059886658 0 0,0 -0.38076473156172275,-0.24302206694244088 l 2.8575141158909436 -4.393283992537353" fill="#ff0100" stroke="none" /><path d="M 88.54995079064634 117.60387380957326 l -6.444766929145343 9.908504468269419 a32.82004575154938,32.82004575154938 0 0,0 -0.47092905587875494,-0.31210609925989896 l 6.61437068376406 -9.796100347918202" fill="#ff6509" stroke="none" /><path d="M 87.65650970185807 116.9893568818739 l -14.29589925251575 19.67661726804005 a45.3216365105437,45.3216365105437 0 0,0 -0.6271975588186063,-0.46398575983806906 l 14.63248178175292 -19.427621559462214" fill="#edff19" stroke="none" /><path d="M 87.36589467227662 116.77436683061367 l -3.929999418101347 5.21788050465853 a27.532317535696844,27.532317535696844 0 0,0 -0.3761062351898298,-0.2883822231509433 l 4.019234381784663 -5.149458939680221" fill="#ff1502" stroke="none" /><path d="M 87.07902340077011 116.55440617244103 l -6.514930408276854 8.346954530529082 a31.58848280724913,31.58848280724913 0 0,0 -0.42575635119135335,-0.33824659482773023 l 6.657644252185565 -8.23357402169622" fill="#ff5307" stroke="none" /><path d="M 86.79598089348748 116.32954008644616 l -7.208179228167144 8.91442603249404 a32.4640673093884,32.4640673093884 0 0,0 -0.4315090921421978,-0.3551026058435975 l 7.3605584488540305 -8.789028307793261" fill="#ff6008" stroke="none" /><path d="M 85.97065885151581 115.62618273729859 l -8.277111813931084 9.219225648063642 a33.38970143022954,33.38970143022954 0 0,0 -0.42436792166168924,-0.38765003477164345 l 8.434579285059629 -9.075382846705422" fill="#ff6d0a" stroke="none" /><path d="M 85.70375840098266 115.38237550388516 l -8.103894622595242 8.719574950191394 a32.903952930272084,32.903952930272084 0 0,0 -0.4115566353177976,-0.3891524867629439 l 8.252787092303857 -8.57878782668252" fill="#ff6609" stroke="none" /><path d="M 84.9287848128048 114.62390073753433 l -4.816062474828204 4.673121490395146 a27.710627558242322,27.710627558242322 0 0,0 -0.32922000156948455,-0.34518585544138297 l 4.895789027776646 -4.589528518371263" fill="#ff1802" stroke="none" /><path d="M 84.43433777217949 114.09645910891817 l -12.253128559681272 11.096587036891483 a37.530983133721506,37.530983133721506 0 0,0 -0.4295352219136876,-0.4825873752916559 l 12.442322631243297 -10.884025491858964" fill="#ffa80f" stroke="none" /><path d="M 83.72743513129214 113.27417163493432 l -4.148009081838919 3.383694269455899 a26.353070731100686,26.353070731100686 0 0,0 -0.2837122502215798,-0.35397465490413943 l 4.20563924411536 -3.3117917809735" fill="#ff0300" stroke="none" /><path d="M 83.28015986056508 112.70617746262583 l -5.992504144416781 4.5539802097087385 a28.526542477875957,28.526542477875957 0 0,0 -0.29374016242784506,-0.393512949903395 l 6.070005573539711 -4.450154380296035" fill="#ff2403" stroke="none" /><path d="M 82.05923443525364 110.91462005526583 l -13.300860828743573 8.091842113971499 a36.56890515042878,36.56890515042878 0 0,0 -0.32253621850651604,-0.5405892544655485 l 13.438177922948322 -7.861690765619839" fill="#ff9b0e" stroke="none" /><line stroke="#e1ed5e" stroke-width="0.3" x1="26.63291911575756" x2="22.317208475507996" y1="142.92168965132927" y2="145.44649492493687" /><path d="M 25.769776987707644 143.4266507060508 a86.0,86.0 0 0,1 -11.730757126820373,-40.83630448921669" fill="none" id="id21" stroke="none" /><text fill="#e1ed5e" style="font-size:6.75px; font-family:Arial;" text-anchor="middle"><textPath startOffset="21.46611528233685" xlink:href="#id21">September</textPath></text><path d="M 81.87401531095188 110.60418214915194 l -4.469618549256543 2.61484548545283 a26.178311200444718,26.178311200444718 0 0,0 -0.22419604826199277,-0.3909047076859364 l 4.513966593670913 -2.5375209319085865" fill="#ff0000" stroke="none" /><path d="M 81.18737489456691 109.33194174019688 l -4.891194922486671 2.4262613963114763 a26.459902209105095,26.459902209105095 0 0,0 -0.1988861616190592,-0.4097644010704541 l 4.9322343407204485 -2.3417080392757375" fill="#ff0400" stroke="none" /><path d="M 80.45479744820244 107.68017299344265 l -5.550585126479241 2.1810699517293934 a26.96372881514824,26.96372881514824 0 0,0 -0.16602687520419052,-0.433443780871226 l 5.58730628127694 -2.08520260402501" fill="#ff0c01" stroke="none" /><path d="M 80.20201598880116 107.00284435728193 l -7.048760442928284 2.4932524577083646 a28.476719307267015,28.476719307267015 0 0,0 -0.1594820616757427,-0.4635295231279959 l 7.090633335547255 -2.371550231491072" fill="#ff2403" stroke="none" /><line stroke="#e1ed5e" stroke-width="0.3" x1="15.007084014347285" x2="10.007500721073583" y1="101.09737516637583" y2="101.16192664675087" /><path d="M 14.007167355692545 101.11028546245083 a86.0,86.0 0 0,1 10.666146001902534,-42.60595125391555" fill="none" id="id22" stroke="none" /><text fill="#e1ed5e" style="font-size:6.75px; font-family:Arial;" text-anchor="middle"><textPath startOffset="22.20632615414155" xlink:href="#id22">October</textPath></text><path d="M 79.54389044137918 95.25157060432595 l -5.59165917751696 -1.2979789110448154 a26.740331141234513,26.740331141234513 0 0,0 0.10793823766385623,-0.4474736796832354 l 5.568488139592289 1.3940378223874477" fill="#ff0901" stroke="none" /><path d="M 79.91906864156998 93.8553929516997 l -6.839949692177565 -2.0929708059048755 a28.153002068075338,28.153002068075338 0 0,0 0.14578498049360045,-0.4621782275031325 l 6.802909227915761 2.2103991998344226" fill="#ff1f03" stroke="none" /><line stroke="#e1ed5e" stroke-width="0.3" x1="26.266209847984243" x2="21.928928074336255" y1="57.711370442889674" y2="55.22380399835377" /><path d="M 25.398753493254645 57.213857153982495 a86.0,86.0 0 0,1 29.58750427330803,-30.492523968695096" fill="none" id="id23" stroke="none" /><text fill="#e1ed5e" style="font-size:6.75px; font-family:Arial;" text-anchor="middle"><textPath startOffset="21.46611528233685" xlink:href="#id23">November</textPath></text><path d="M 83.17141714833178 87.43820079747576 l -5.80951835082918 -4.3365507143259885 a28.249563819054373,28.249563819054373 0 0,0 0.2942313945429381,-0.3871740258021132 l 5.734011016062133 4.435909516009128" fill="#ff2003" stroke="none" /><path d="M 85.57189188830299 84.74124197986013 l -8.224465441744647 -8.697961440893563 a32.970645973786176,32.970645973786176 0 0,0 0.4157317676214023,-0.3863773699192936 l 8.073525790328388 8.838243396887504" fill="#ff6709" stroke="none" /><path d="M 86.65592168130627 83.78471172551755 l -7.229041094983779 -8.784494702719726 a32.376571642418256,32.376571642418256 0 0,0 0.43337829784841625,-0.3504284440863144 l 7.076759398570862 8.907629244070176" fill="#ff5e08" stroke="none" /><path d="M 87.80319425747018 82.90503203632743 l -6.009385145180507 -8.42271728408479 a31.346732637443417,31.346732637443417 0 0,0 0.44194244808302646,-0.30960892756342756 l 5.86351155751382 8.52491105441216" fill="#ff4f07" stroke="none" /><path d="M 88.70189139769569 82.29822771554957 l -6.445492500720327 -10.098738162741107 a32.98035417074327,32.98035417074327 0 0,0 0.4811689936140942,-0.30130797965861883 l 6.270704354733991 10.208190483722657" fill="#ff6709" stroke="none" /><line stroke="#e1ed5e" stroke-width="0.3" x1="56.762969772571076" x2="54.21961505331055" y1="26.818313649435495" y2="22.513508569990535" /><path d="M 56.25429882871897 25.957352633546506 a86.0,86.0 0 0,1 42.265352541879196,-11.944610805530505" fill="none" id="id24" stroke="none" /><text fill="#e1ed5e" style="font-size:6.75px; font-family:Arial;" text-anchor="middle"><textPath startOffset="22.20632615414155" xlink:href="#id24">December</textPath></text><path d="M 91.23893434514133 80.91482961587045 l -4.314813556275966 -9.399421844488753 a31.342472965208813,31.342472965208813 0 0,0 0.4922527635903603,-0.22085946619934418 l 4.152378674218831 9.472301641204625" fill="#ff4f07" stroke="none" /><path d="M 91.56875222667455 80.76684994638697 l -7.831735567216669 -17.865557909595783 a40.50677424424467,40.50677424424467 0 0,0 0.6410028095658912,-0.2744439504845708 l 7.52304899986047 17.997721388043143" fill="#ffd113" stroke="none" /></svg>