<?xml version="1.0" encoding="utf-8" ?>
<svg baseProfile="full" height="200mm" version="1.1" viewBox="0,0,200,200" width="200mm" xmlns="http://www.w3.org/2000/svg" xmlns:ev="http://www.w3.org/2001/xml-events" xmlns:xlink="http://www.w3.org/1999/xlink"><defs /><rect fill="#1a1a1a" height="200" width="200" x="0" y="0" /><text alignment-baseline="middle" fill="#e1ed5e" style="dominant-baseline: central; font-size:9.0px; font-family:Arial;" text-anchor="middle" x="100.0" y="100.0">2018</text><line stroke="#e1ed5e" stroke-width="0.3" x1="100.0" x2="100.0" y1="15.0" y2="10.0" /><path d="M 100.0 14.0 a86.0,86.0 0 0,1 42.46469731375804,11.215312516191453" fill="none" id="id25" stroke="none" /><text fill="#e1ed5e" style="font-size:6.75px; font-family:Arial;" text-anchor="middle"><textPath startOffset="22.20632615414155" xlink:href="#id25">January</textPath></text><path d="M 100.0 79.0 l 0.0 -8.478984403538782 a29.47898440353878,29.47898440353878 0 0,0 0.5074322576504089,0.004367629643678204 l -0.14595177837788056 8.477728150503662" fill="#ff0000" stroke="none" /><path d="M 101.80526077348638 79.07773832637324 l 5.304209501518008 -61.47369997309403 a82.70211039193047,82.70211039193047 0 0,0 1.4172576888887893,0.1345856947661831 l -6.361592317497041 61.37328873381267" fill="#4bdfff" stroke="none" /><path d="M 107.76421540070413 80.48803036053334 l 4.033540432783036 -10.136544956865354 a31.90958258071536,31.90958258071536 0 0,0 0.5086024764031829,0.20747172037251285 l -4.2074267787746065 10.06561235030926" fill="#ff2803" stroke="none" /><line stroke="#e1ed5e" stroke-width="0.3" x1="143.23703022742887" x2="145.7803849466894" y1="26.81831364943548" y2="22.513508569990506" /><path d="M 143.74570117128098 25.957352633546492 a86.0,86.0 0 0,1 28.547481713284135,27.462654790039103" fill="none" id="id26" stroke="none" /><text fill="#e1ed5e" style="font-size:6.75px; font-family:Arial;" text-anchor="middle"><textPath startOffset="19.985693538727396" xlink:href="#id26">February</textPath></text><line stroke="#e1ed5e" stroke-width="0.3" x1="172.23445277983987" x2="176.4835382374775" y1="55.19839476539836" y2="52.563006222186495" /><path d="M 173.08426987136738 54.67131705675599 a86.0,86.0 0 0,1 12.851231095245387,41.99856678651699" fill="none" id="id27" stroke="none" /><text fill="#e1ed5e" style="font-size:6.75px; font-family:Arial;" text-anchor="middle"><textPath startOffset="22.20632615414155" xlink:href="#id27">March</textPath></text><path d="M 119.7369772167798 92.82701384747503 l 25.608846720721264 -9.306992701683749 a48.24762638312906,48.24762638312906 0 0,0 0.27695727232026474,0.7829955043167751 l -25.765257073851338 8.86479957094036" fill="#e4ff1b" stroke="none" /><line stroke="#e1ed5e" stroke-width="0.3" x1="184.98032266829074" x2="189.97916517819016" y1="98.17113171792111" y2="98.06355123074" /><path d="M 185.9800911702706 98.14961562048488 a86.0,86.0 0 0,1 -9.607161424134198,41.387399972396054" fill="none" id="id28" stroke="none" /><text fill="#e1ed5e" style="font-size:6.75px; font-family:Arial;" text-anchor="middle"><textPath startOffset="21.466115282336823" xlink:href="#id28">April</textPath></text><line stroke="#e1ed5e" stroke-width="0.3" x1="174.80103733775053" x2="179.2010983576182" y1="140.37084112569926" y2="142.7455964860345" /><path d="M 175.68104954172406 140.8457921977663 a86.0,86.0 0 0,1 -30.038265399797805,32.042727171017184" fill="none" id="id29" stroke="none" /><text fill="#e1ed5e" style="font-size:6.75px; font-family:Arial;" text-anchor="middle"><textPath startOffset="22.206326154141568" xlink:href="#id29">May</textPath></text><line stroke="#e1ed5e" stroke-width="0.3" x1="143.8653032363475" x2="146.44561519142675" y1="172.8068346515853" y2="177.08958963109032" /><path d="M 144.38136562736335 173.6633856474863 a86.0,86.0 0 0,1 -40.68145358897372,12.25698825130547" fill="none" id="id30" stroke="none" /><text fill="#e1ed5e" style="font-size:6.75px; font-family:Arial;" text-anchor="middle"><textPath startOffset="21.466115282336833" xlink:href="#id30">June</textPath></text><line stroke="#e1ed5e" stroke-width="0.3" x1="102.19456741930631" x2="102.32365962044197" y1="184.97166512339345" y2="189.96999836594603" /><path d="M 102.22038585953345 185.97133177190398 a86.0,86.0 0 0,1 -42.740103519485714,-10.115201625700543" fill="none" id="id31" stroke="none" /><text fill="#e1ed5e" style="font-size:6.75px; font-family:Arial;" text-anchor="middle"><textPath startOffset="22.20632615414155" xlink:href="#id31">July</textPath></text><path d="M 90.7491055286396 118.85261126421891 l -5.649912713261131 11.514087463611157 a33.82558863316446,33.82558863316446 0 0,0 -0.5205050851017871,-0.26099205517835267 l 5.847271706045679 -11.4151275675235" fill="#ff4706" stroke="none" /><line stroke="#e1ed5e" stroke-width="0.3" x1="58.666819895761336" x2="56.23545636021788" y1="174.27360380694188" y2="178.64263932499728" /><path d="M 58.180547188652646 175.14741091055294 a86.0,86.0 0 0,1 -31.652253787137756,-30.449443065178592" fill="none" id="id32" stroke="none" /><text fill="#e1ed5e" style="font-size:6.75px; font-family:Arial;" text-anchor="middle"><textPath startOffset="22.20632615414155" xlink:href="#id32">August</textPath></text><line stroke="#e1ed5e" stroke-width="0.3" x1="26.63291911575756" x2="22.317208475507996" y1="142.92168965132927" y2="145.44649492493687" /><path d="M 25.769776987707644 143.4266507060508 a86.0,86.0 0 0,1 -11.730757126820373,-40.83630448921669" fill="none" id="id33" stroke="none" /><text fill="#e1ed5e" style="font-size:6.75px; font-family:Arial;" text-anchor="middle"><textPath startOffset="21.46611528233685" xlink:href="#id33">September</textPath></text><path d="M 80.58989483394504 108.01547362559985 l -29.046435388179372 11.994831289157924 a52.425648544064146,52.425648544064146 0 0,0 -0.3372651459125738,-0.8370644332416961 l 29.248603148349336 -11.493067488073423" fill="#adff20" stroke="none" /><path d="M 80.45479744820244 107.68017299344265 l -33.73713987324687 13.256811733919735 a57.24827808566382,57.24827808566382 0 0,0 -0.3525014209475184,-0.920269977195328 l 33.9603355737879 -12.67411818989125" fill="#71ff27" stroke="none" /><path d="M 80.32549172779594 107.34259656027581 l -27.324540754547108 10.197615929182136 a50.165422988292406,50.165422988292406 0 0,0 -0.29496250835547183,-0.8116101416377295 l 27.496027523907806 -9.725757990538291" fill="#caff1d" stroke="none" /><path d="M 80.20201598880116 107.00284435728193 l -32.26564506961969 11.412843367387163 a55.22462337977127,55.22462337977127 0 0,0 -0.309282003198479,-0.898918272991373 l 32.45731790376139 -10.855752391306492" fill="#8aff24" stroke="none" /><path d="M 80.0844068197444 106.66101706037122 l -28.480493723846163 9.525654238128 a51.03126056991958,51.03126056991958 0 0,0 -0.27145653552709287,-0.8354573104503666 l 28.640242510389506 -9.03399802769983" fill="#bfff1e" stroke="none" /><path d="M 79.86692584326677 105.97154293290107 l -30.303314276409232 8.988073098129087 a52.60816847196527,52.60816847196527 0 0,0 -0.250032503497069,-0.8703959458561493 l 30.453539416792406 -8.46511967676834" fill="#abff21" stroke="none" /><path d="M 79.67330655649465 105.27499134158121 l -60.98008033051604 15.824974024743632 a84.0,84.0 0 0,0 -0.3511547428197659,-1.4026886424104326 l 61.24344638763086 -14.772957542935808" fill="#4dd2ff" stroke="none" /><path d="M 79.4281124754447 104.21870165774334 l -32.778219039227935 6.721868707166894 a54.460352094680566,54.460352094680566 0 0,0 -0.18041954025693957,-0.9199553487920896 l 32.88906851246054 -6.156649631306849" fill="#93ff23" stroke="none" /><line stroke="#e1ed5e" stroke-width="0.3" x1="15.007084014347285" x2="10.007500721073583" y1="101.09737516637583" y2="101.16192664675087" /><path d="M 14.007167355692545 101.11028546245083 a86.0,86.0 0 0,1 10.666146001902534,-42.60595125391555" fill="none" id="id34" stroke="none" /><text fill="#e1ed5e" style="font-size:6.75px; font-family:Arial;" text-anchor="middle"><textPath startOffset="22.20632615414155" xlink:href="#id34">October</textPath></text><line stroke="#e1ed5e" stroke-width="0.3" x1="26.266209847984243" x2="21.928928074336255" y1="57.711370442889674" y2="55.22380399835377" /><path d="M 25.398753493254645 57.213857153982495 a86.0,86.0 0 0,1 29.58750427330803,-30.492523968695096" fill="none" id="id35" stroke="none" /><text fill="#e1ed5e" style="font-size:6.75px; font-family:Arial;" text-anchor="middle"><textPath startOffset="21.46611528233685" xlink:href="#id35">November</textPath></text><line stroke="#e1ed5e" stroke-width="0.3" x1="56.762969772571076" x2="54.21961505331055" y1="26.818313649435495" y2="22.513508569990535" /><path d="M 56.25429882871897 25.957352633546506 a86.0,86.0 0 0,1 42.265352541879196,-11.944610805530505" fill="none" id="id36" stroke="none" /><text fill="#e1ed5e" style="font-size:6.75px; font-family:Arial;" text-anchor="middle"><textPath startOffset="22.20632615414155" xlink:href="#id36">December</textPath></text></svg>